<svg width="33" height="33" viewBox="0 0 33 33" fill="none" xmlns="http://www.w3.org/2000/svg">
<path d="M31.8799 15.8862L26.8005 11.6589L19.9569 5.96461L13.637 0.705262C13.4258 0.529641 13.1133 0.684601 13.1133 0.964562V7.59066V7.61752V14.4564V24.6745V31.3275C13.1133 31.6074 13.427 31.7624 13.637 31.5868L19.9569 26.3274L26.8005 20.6321L31.8799 16.4058C32.0404 16.2726 32.0404 16.0205 31.8799 15.8862Z" fill="#156B8A"/>
<mask id="mask0" mask-type="alpha" maskUnits="userSpaceOnUse" x="13" y="0" width="20" height="32">
<path d="M31.8945 15.8862L26.8152 11.6589L19.9716 5.96461L13.6517 0.705262C13.4405 0.529641 13.1279 0.684601 13.1279 0.964562V7.59066V7.61752V14.4564V24.6745V31.3275C13.1279 31.6074 13.4417 31.7624 13.6517 31.5868L19.9716 26.3274L26.8152 20.6321L31.8945 16.4058C32.055 16.2726 32.055 16.0205 31.8945 15.8862Z" fill="#156B8A"/>
</mask>
<g mask="url(#mask0)">
<rect x="12.3516" y="16.6611" width="26.2147" height="18.0958" fill="#1FA7D9"/>
</g>
<path d="M19.7353 15.8849L14.6602 11.6593L7.82228 5.96734L1.50768 0.710115C1.29667 0.534564 0.984375 0.689462 0.984375 0.96931V7.59273V7.61958V14.4557V24.6697V31.3199C0.984375 31.5998 1.29787 31.7547 1.50768 31.5791L7.82228 26.3219L14.6602 20.6289L19.7353 16.4043C19.8956 16.2711 19.8956 16.0192 19.7353 15.8849Z" fill="#BFED45"/>
</svg>
