<svg width="55" height="62" viewBox="0 0 55 62" fill="none" xmlns="http://www.w3.org/2000/svg">
<path d="M36.3025 45.9244H48.0073V55.6252C48.0206 57.1639 47.5525 58.6682 46.6684 59.9276C45.8923 61.0149 44.724 61.9957 43.0439 61.9957L36.166 61.194L36.3025 45.9244Z" fill="#C4E7F6"/>
<path d="M35.543 44.334H48.7615C49.1834 44.334 49.5879 44.5016 49.8862 44.7998C50.1845 45.0981 50.352 45.5027 50.352 45.9245C50.352 46.1333 50.3109 46.3402 50.231 46.5331C50.151 46.7261 50.0339 46.9014 49.8862 47.0491C49.7385 47.1968 49.5632 47.314 49.3702 47.3939C49.1772 47.4738 48.9704 47.515 48.7615 47.515H35.543V44.334Z" fill="#156B8A"/>
<path d="M0.854368 8C0.628188 8 0.411272 8.08985 0.251339 8.24978C0.0914059 8.40972 0.00155706 8.62663 0.00155706 8.85281V56.09C0.00155706 56.09 -0.237232 62 5.19944 62H43.0472C43.0472 62 38.9366 61.177 38.3823 56.849C38.3384 56.5183 38.317 56.1849 38.3184 55.8512L38.1904 8.85281C38.1904 8.62663 38.1006 8.40972 37.9406 8.24978C37.7807 8.08985 37.5638 8 37.3376 8H0.854368Z" fill="#E4F8FF"/>
<path d="M31.184 28.2458H7.18164V30.3779H31.184V28.2458Z" fill="#AEE6FF"/>
<path d="M31.184 35.1536H7.18164V37.2856H31.184V35.1536Z" fill="#AEE6FF"/>
<path d="M31.184 42.4919H7.18164V44.624H31.184V42.4919Z" fill="#AEE6FF"/>
<path d="M14.7674 21.4659H7.18164V23.598H14.7674V21.4659Z" fill="#AEE6FF"/>
<path d="M39.6452 1.4995C38.1849 1.4995 36.4414 -0.367442 35.1196 0.0649975C33.7546 0.512349 33.4536 3.06673 32.3151 3.89731C31.1662 4.73684 28.6479 4.24475 27.8104 5.39445C26.9789 6.5337 28.2143 8.77642 27.7672 10.1423C27.3351 11.465 25 12.5387 25 14C25 15.4613 27.3351 16.535 27.7672 17.8577C28.2143 19.2236 26.9804 21.4663 27.8104 22.6056C28.6494 23.7552 31.1662 23.2632 32.3151 24.1027C33.4536 24.9348 33.7546 27.4876 35.1196 27.935C36.4414 28.3674 38.1849 26.5005 39.6452 26.5005C41.1055 26.5005 42.849 28.3674 44.1708 27.935C45.5358 27.4876 45.8368 24.9333 46.9752 24.1027C48.1242 23.2632 50.6425 23.7552 51.48 22.6056C52.3115 21.4663 51.0761 19.2236 51.5232 17.8577C51.9553 16.535 54.2904 15.4613 54.2904 14C54.2904 12.5387 51.9553 11.465 51.5232 10.1423C51.0761 8.77642 52.31 6.5337 51.48 5.39445C50.641 4.24475 48.1242 4.73684 46.9752 3.89731C45.8368 3.06524 45.5358 0.512349 44.1708 0.0649975C42.849 -0.367442 41.1055 1.4995 39.6452 1.4995Z" fill="#BFED44"/>
<path d="M45.6068 11.0444L37.8282 18.8298L33.6855 14.7142L35.5706 12.8279L37.8282 15.0825L39.1544 13.7539L43.7351 9.17151L45.6068 11.0444Z" fill="#16326E"/>
</svg>
