<svg width="23" height="57" viewBox="0 0 23 57" fill="none" xmlns="http://www.w3.org/2000/svg">
<line x1="10.9582" y1="0.5" x2="10.9582" y2="56.5" stroke="url(#paint0_linear)" stroke-width="2.80303"/>
<rect x="0.386719" y="17.4587" width="22" height="22" rx="4" fill="url(#paint1_linear)"/>
<path d="M14.4013 27.3516H14.0662L14.0668 25.3171C14.0668 23.8393 12.8649 22.6375 11.3872 22.6375C9.90942 22.6375 8.70752 23.8393 8.70752 25.3171V27.3516H8.37241C7.79619 27.3516 7.32861 27.8186 7.32861 28.3954V33.2361C7.32861 33.8123 7.79558 34.2799 8.37241 34.2799H14.4014C14.9776 34.2799 15.4452 33.8129 15.4452 33.2361V28.395C15.4452 27.8188 14.9781 27.3516 14.4013 27.3516ZM9.64489 25.3171C9.64489 24.3563 10.4268 23.575 11.3869 23.575C12.347 23.575 13.129 24.357 13.129 25.3171V27.3516H9.64474L9.64489 25.3171ZM11.921 30.7626V32.0658C11.921 32.3606 11.6824 32.5993 11.3869 32.5993C11.0921 32.5993 10.8534 32.3607 10.8534 32.0658V30.7626C10.6032 30.5917 10.4396 30.3048 10.4396 29.9794C10.4396 29.4557 10.8638 29.0315 11.3875 29.0315C11.9113 29.0315 12.3355 29.4563 12.3355 29.9794C12.3349 30.3048 12.1707 30.5917 11.921 30.7626Z" fill="white"/>
<defs>
<linearGradient id="paint0_linear" x1="9.5028" y1="56.5" x2="-3.55605" y2="54.5694" gradientUnits="userSpaceOnUse">
<stop stop-color="#1FA7D9"/>
<stop offset="1" stop-color="#B2F000"/>
</linearGradient>
<linearGradient id="paint1_linear" x1="22.3867" y1="18.6433" x2="-12.5627" y2="22.8647" gradientUnits="userSpaceOnUse">
<stop stop-color="#1FA7D9"/>
<stop offset="1" stop-color="#B2F000"/>
</linearGradient>
</defs>
</svg>
