<svg width="133" height="25" viewBox="0 0 133 25" fill="none" xmlns="http://www.w3.org/2000/svg">
<path d="M0 24.5845V0.415513H11.0071C12.1289 0.415513 13.1337 0.600185 14.0218 0.969529C14.9332 1.31579 15.7044 1.82364 16.3354 2.49308C16.9664 3.13943 17.4455 3.92428 17.7726 4.84764C18.0998 5.77101 18.2634 6.7867 18.2634 7.89474C18.2634 9.02585 18.0998 10.0531 17.7726 10.9765C17.4455 11.8767 16.9664 12.6616 16.3354 13.331C15.7044 13.9774 14.9332 14.4852 14.0218 14.8546C13.1337 15.2008 12.1289 15.374 11.0071 15.374H4.62719V24.5845H0ZM4.62719 11.4266H10.5865C11.4745 11.4266 12.1756 11.1958 12.6897 10.7341C13.2039 10.2493 13.4609 9.56833 13.4609 8.69114V7.09834C13.4609 6.22115 13.2039 5.55171 12.6897 5.09003C12.1756 4.62835 11.4745 4.39751 10.5865 4.39751H4.62719V11.4266Z" fill="white"/>
<path d="M27.3295 24.5845V15.097L18.9515 0.415513H24.1396L29.7834 10.6302H29.8535L35.357 0.415513H40.4049L31.9918 15.0623V24.5845H27.3295Z" fill="white"/>
<path d="M61.7327 7.23684H61.5925L59.6995 11.0803L54.6867 20.2216L49.674 11.0803L47.781 7.23684H47.6408V24.5845H43.259V0.415513H48.4821L54.7568 12.223H54.8971L61.1017 0.415513H66.1145V24.5845H61.7327V7.23684Z" fill="white"/>
<path d="M78.5234 12.1884L75.9995 7.16759H75.8943V24.5845H71.5125V0.415513H76.5954L83.9569 12.8116L86.4808 17.8324H86.586V0.415513H90.9678V24.5845H85.8849L78.5234 12.1884Z" fill="white"/>
<path d="M105.948 4.46676V24.5845H101.321V4.46676H94.3797V0.415513H112.889V4.46676H105.948Z" fill="white"/>
<path d="M123.508 25C121.405 25 119.617 24.6307 118.145 23.892C116.696 23.1533 115.445 22.1837 114.394 20.9834L117.514 18.0055C118.355 18.9751 119.29 19.7138 120.318 20.2216C121.37 20.7295 122.526 20.9834 123.788 20.9834C125.214 20.9834 126.289 20.6833 127.013 20.0831C127.738 19.4598 128.1 18.6288 128.1 17.59C128.1 16.7821 127.866 16.1242 127.399 15.6163C126.932 15.1085 126.055 14.7391 124.77 14.5083L122.456 14.162C117.572 13.4003 115.13 11.0572 115.13 7.13296C115.13 6.04802 115.329 5.06694 115.726 4.18975C116.147 3.31256 116.742 2.56233 117.514 1.93906C118.285 1.31579 119.208 0.842566 120.283 0.51939C121.381 0.17313 122.62 0 123.999 0C125.845 0 127.457 0.300093 128.836 0.900278C130.215 1.50046 131.395 2.3892 132.377 3.56648L129.222 6.5097C128.614 5.77101 127.878 5.17082 127.013 4.70914C126.149 4.24746 125.062 4.01662 123.753 4.01662C122.421 4.01662 121.416 4.27054 120.739 4.77839C120.084 5.26316 119.757 5.95568 119.757 6.85596C119.757 7.77932 120.026 8.4603 120.563 8.89889C121.101 9.33749 121.966 9.66066 123.157 9.86842L125.436 10.2839C127.913 10.7225 129.736 11.5074 130.904 12.6385C132.096 13.7465 132.692 15.3047 132.692 17.313C132.692 18.4672 132.482 19.5175 132.061 20.464C131.664 21.3873 131.068 22.1953 130.274 22.8878C129.502 23.5572 128.544 24.0766 127.399 24.446C126.277 24.8153 124.98 25 123.508 25Z" fill="white"/>
</svg>
