<svg width="34" height="24" viewBox="0 0 34 24" fill="none" xmlns="http://www.w3.org/2000/svg">
<rect x="0.5" y="0.5" width="33" height="23" rx="3.5" fill="white" stroke="#D9D9D9"/>
<path d="M6.03101 6.18252C6.03101 6.12713 6.0462 6.08287 6.07651 6.04958C6.10657 6.01661 6.15173 6 6.21235 6H8.84303C9.03278 6 9.21124 6.02536 9.37849 6.07551C9.54591 6.12558 9.69966 6.19503 9.83983 6.28363C9.97957 6.37215 10.1061 6.47801 10.2186 6.60089C10.3308 6.72401 10.4266 6.85678 10.5047 6.99962C10.5832 7.14246 10.6426 7.2925 10.6838 7.45014C10.725 7.6073 10.7457 7.76699 10.7457 7.92791C10.7457 8.16614 10.7009 8.39888 10.6117 8.62639C10.5226 8.85366 10.3954 9.05613 10.231 9.23341C10.0662 9.41061 9.86844 9.55435 9.63811 9.66381C9.40752 9.77368 9.15189 9.82964 8.87206 9.83258H7.62456V11.721C7.62456 11.8347 7.56139 11.8915 7.43549 11.8915H6.21235C6.15759 11.8915 6.11336 11.8778 6.08059 11.8499C6.04765 11.8222 6.03101 11.7792 6.03101 11.721V6.18252ZM9.13143 7.92022C9.13143 7.84086 9.11717 7.76135 9.0883 7.68199C9.05935 7.60264 9.01758 7.53203 8.96248 7.47019C8.90798 7.4076 8.84116 7.35664 8.76288 7.31696C8.68478 7.27728 8.59657 7.25757 8.49732 7.25757H7.62456V8.58279H8.49732C8.59657 8.58279 8.68546 8.56373 8.76526 8.52519C8.84481 8.48674 8.91112 8.43733 8.96469 8.37638C9.01817 8.31585 9.05944 8.24541 9.08839 8.16614C9.11717 8.0867 9.13143 8.00489 9.13143 7.92022Z" fill="#941C80"/>
<path d="M12.524 6.1547C12.5265 6.13916 12.5357 6.12157 12.5505 6.10316C12.5655 6.08467 12.5843 6.06757 12.6063 6.05162C12.6283 6.03575 12.6515 6.02323 12.6765 6.01374C12.7011 6.00474 12.7245 6 12.7462 6H13.8003C13.8474 6 13.8869 6.01374 13.9197 6.04164C13.9527 6.06946 13.9774 6.09383 13.994 6.11478L14.0967 6.34114L16.2585 11.7133C16.2802 11.7661 16.2763 11.8092 16.2461 11.8422C16.2155 11.8752 16.1638 11.8916 16.0898 11.8916H14.9079C14.845 11.8916 14.7959 11.8807 14.7618 11.8579C14.7271 11.8355 14.7005 11.798 14.6813 11.7449C14.6265 11.6098 14.573 11.476 14.5209 11.3423C14.4686 11.2084 14.4164 11.0744 14.3641 10.9397H12.1781C12.1258 11.0744 12.0729 11.2084 12.0194 11.3423C11.9659 11.476 11.9132 11.6098 11.8609 11.7449C11.8253 11.843 11.7551 11.8916 11.651 11.8916H10.4363C10.384 11.8916 10.341 11.8785 10.3066 11.852C10.2722 11.8257 10.266 11.786 10.2881 11.7329L12.524 6.1547ZM13.2732 7.85281C13.2212 7.98771 13.1684 8.13317 13.1148 8.28909C13.0615 8.44535 13.0086 8.60259 12.9563 8.76129C12.9041 8.92009 12.8512 9.07667 12.7978 9.23145C12.7443 9.38607 12.6914 9.5312 12.6394 9.66602H13.9031L13.2732 7.85281Z" fill="#941C80"/>
<path d="M18.0847 8.17415L19.0786 6.12329C19.0954 6.09105 19.109 6.06823 19.1198 6.0535C19.1313 6.03886 19.142 6.02847 19.1531 6.0216C19.1639 6.01497 19.1757 6.01104 19.1876 6.00965C19.2003 6.00843 19.2148 6.0054 19.2314 6H20.8163C20.8354 6 20.8511 6.00597 20.8639 6.01783C20.8759 6.02961 20.8823 6.04377 20.8823 6.05907C20.8823 6.08852 20.8632 6.12165 20.8246 6.15871L18.8735 9.48735V11.705C18.8735 11.8294 18.8102 11.8916 18.6841 11.8916H17.4523C17.3975 11.8916 17.355 11.8749 17.3249 11.8419C17.2948 11.8091 17.2799 11.7632 17.2799 11.705V9.47958L15.3325 6.15887C15.2965 6.12427 15.2791 6.09113 15.2791 6.05923C15.2791 6.04393 15.2841 6.02978 15.2952 6.018C15.3063 6.00605 15.3212 6.00016 15.3404 6.00016H16.9257C16.9449 6.00548 16.9601 6.00859 16.9707 6.00982C16.9822 6.01121 16.9931 6.01513 17.0039 6.02176C17.0149 6.02863 17.0255 6.03894 17.037 6.05367C17.0479 6.06831 17.0629 6.09122 17.0821 6.12345L18.0847 8.17415Z" fill="#941C80"/>
<path d="M6 12.8775C6 12.8299 6.01486 12.7888 6.04542 12.7544C6.07522 12.7201 6.12064 12.7029 6.18134 12.7029H7.52733C7.56605 12.7029 7.60552 12.7122 7.64712 12.7306C7.6883 12.7491 7.72362 12.7807 7.75367 12.826C8.10244 13.3679 8.44849 13.9023 8.79139 14.4287C9.13455 14.9551 9.48188 15.4895 9.83319 16.0317V12.8538C9.84422 12.8061 9.8663 12.7691 9.89907 12.7426C9.93218 12.7161 9.97047 12.7029 10.0145 12.7029H11.188C11.2456 12.7029 11.2934 12.7182 11.332 12.7485C11.3707 12.7792 11.3898 12.8219 11.3898 12.8776V18.4401C11.3898 18.493 11.3732 18.532 11.3404 18.557C11.3073 18.5825 11.2623 18.5946 11.2045 18.5946H9.89092C9.85518 18.5946 9.82376 18.5826 9.79626 18.5588C9.76866 18.5354 9.73971 18.5033 9.70991 18.4639C9.34502 17.882 8.9836 17.3067 8.62694 16.7383C8.27011 16.1694 7.90776 15.5939 7.54007 15.0119V18.4199C7.54007 18.4783 7.52614 18.5219 7.49855 18.5511C7.4713 18.5801 7.42189 18.5944 7.35032 18.5944H6.18134C6.11767 18.5944 6.07242 18.578 6.04338 18.545C6.0146 18.5121 6 18.4718 6 18.4239V12.8775Z" fill="#941C80"/>
<path d="M22.5731 18.5111C22.5456 18.4662 22.5196 18.4198 22.4949 18.3722C22.4702 18.3246 22.4483 18.2773 22.429 18.2294C22.0749 17.3302 21.7224 16.439 21.3708 15.5554C21.0195 14.6721 20.6667 13.7805 20.3128 12.8813C20.3128 12.8679 20.3107 12.8563 20.3069 12.8457C20.3024 12.835 20.3005 12.8247 20.3005 12.8138C20.3005 12.7398 20.3512 12.7029 20.4529 12.7029H21.7785C21.883 12.7029 21.9542 12.7529 21.9926 12.8535L23.2526 16.468L24.4175 12.8535C24.4562 12.7529 24.5316 12.7029 24.6443 12.7029H25.9822C26.0456 12.7029 26.09 12.7142 26.1162 12.7363C26.1423 12.7591 26.1552 12.7885 26.1552 12.8261C26.1552 12.8469 26.1539 12.8617 26.1511 12.8694V12.8814L25.4184 14.9048L25.9702 16.4641L27.304 12.8537C27.3423 12.7531 27.4184 12.703 27.5304 12.703H28.8274C28.8905 12.703 28.9353 12.7143 28.9608 12.7365C28.9868 12.7592 29.0001 12.7887 29.0001 12.8262C29.0001 12.8471 28.9988 12.8618 28.9963 12.8696V12.8816C28.8094 13.3473 28.6188 13.8114 28.4239 14.2739C28.2292 14.7371 28.0334 15.1999 27.837 15.6628C27.641 16.1257 27.4455 16.5895 27.253 17.0534C27.0592 17.5173 26.8704 17.9813 26.6866 18.4442C26.6752 18.4732 26.6505 18.5056 26.6122 18.5413C26.5739 18.5771 26.527 18.5947 26.4719 18.5947H26.4599H25.4634C25.4032 18.5947 25.3573 18.5837 25.3253 18.5611C25.2943 18.5386 25.2715 18.5086 25.2575 18.472L24.6069 16.8211C24.5137 17.0617 24.422 17.2979 24.3314 17.5292C24.2408 17.7612 24.1502 17.9968 24.0596 18.2376C24.0457 18.2746 24.0301 18.3137 24.0121 18.3546C23.9943 18.3955 23.9728 18.4339 23.9484 18.4693C23.9237 18.5053 23.8955 18.5349 23.8638 18.5584C23.8325 18.5828 23.796 18.5943 23.7549 18.5943H23.7423H22.7461C22.6583 18.5944 22.6007 18.5667 22.5731 18.5111Z" fill="#941C80"/>
<mask id="mask0_1625_4721" style="mask-type:alpha" maskUnits="userSpaceOnUse" x="12" y="12" width="9" height="9">
<path d="M13.806 13.1675C13.2807 13.5612 12.8644 14.0737 12.5939 14.6596C12.3234 15.2455 12.207 15.8867 12.2553 16.5263C12.3035 17.1659 12.5147 17.7841 12.8702 18.3262C13.2258 18.8683 13.7146 19.3175 14.2935 19.6339C14.8723 19.9504 15.5232 20.1243 16.1885 20.1403C16.8537 20.1563 17.5129 20.0139 18.1073 19.7257C18.7018 19.4374 19.2133 19.0123 19.5965 18.488C19.9797 17.9637 20.2227 17.3564 20.3039 16.7199C20.3862 16.0777 20.3016 15.4258 20.0577 14.8229C19.8138 14.22 19.4183 13.6849 18.9068 13.2657C18.8808 13.2443 18.8506 13.2284 18.8179 13.219C18.7852 13.2095 18.7509 13.2068 18.7171 13.2108C18.6832 13.2149 18.6506 13.2257 18.6213 13.2426C18.5921 13.2594 18.5668 13.282 18.5471 13.3088L16.3116 16.2677L15.1908 14.9482C15.1691 14.9238 15.142 14.9044 15.1116 14.8913C15.0812 14.8782 15.0481 14.8717 15.0148 14.8723C14.9788 14.8723 14.9432 14.8806 14.9112 14.8967C14.8792 14.9128 14.8518 14.936 14.8311 14.9645L14.3556 15.5864C14.3191 15.6369 14.3003 15.6973 14.3019 15.7589C14.3036 15.8205 14.3257 15.8799 14.3649 15.9285L16.1835 18.0722C16.2051 18.099 16.233 18.1204 16.2649 18.1349C16.2967 18.1493 16.3317 18.1563 16.3669 18.1553C16.4021 18.1543 16.4365 18.1453 16.4674 18.129C16.4983 18.1128 16.5248 18.0897 16.5447 18.0618L18.8883 14.969C19.1379 15.4419 19.2428 15.9734 19.1909 16.5016C19.1389 17.0298 18.9322 17.5328 18.5949 17.9521C18.2575 18.3714 17.8034 18.6896 17.2855 18.8697C16.7676 19.0498 16.2072 19.0842 15.6697 18.9691C15.1323 18.854 14.6399 18.594 14.2499 18.2195C13.8599 17.8449 13.5885 17.3713 13.4673 16.8537C13.346 16.3362 13.38 15.7961 13.5651 15.2965C13.7503 14.7969 14.0791 14.3582 14.5131 14.0318C14.9235 13.7239 15.4121 13.5275 15.9279 13.4632C16.4437 13.3988 16.9681 13.4688 17.4463 13.6658C17.5058 13.6884 17.5713 13.6918 17.633 13.6758C17.6947 13.6597 17.7494 13.6249 17.7891 13.5766L18.1673 13.0767C18.1879 13.0497 18.2021 13.0186 18.209 12.9858C18.216 12.9529 18.2154 12.919 18.2074 12.8863C18.199 12.8541 18.1833 12.824 18.1614 12.7983C18.1395 12.7726 18.112 12.7519 18.0808 12.7376C17.3982 12.4156 16.6353 12.2852 15.8794 12.3612C15.1235 12.4372 14.405 12.7166 13.806 13.1675Z" fill="#1D1D1B"/>
</mask>
<g mask="url(#mask0_1625_4721)">
<path d="M16.3204 8.21578L7.89502 16.2837L16.2655 24.4003L24.6909 16.3324L16.3204 8.21578Z" fill="url(#paint0_linear_1625_4721)"/>
</g>
<defs>
<linearGradient id="paint0_linear_1625_4721" x1="20.1514" y1="12.2272" x2="13.3996" y2="19.19" gradientUnits="userSpaceOnUse">
<stop stop-color="#E83762"/>
<stop offset="1" stop-color="#9A1F81"/>
</linearGradient>
</defs>
</svg>
