<svg width="34" height="24" viewBox="0 0 34 24" fill="none" xmlns="http://www.w3.org/2000/svg">
<rect x="0.5" y="0.5" width="33" height="23" rx="3.5" fill="white" stroke="#D9D9D9"/>
<path d="M10.5183 5.00073H15.8765C16.6244 5.00073 17.0896 5.62831 16.9152 6.40082L14.4205 17.4262C14.2445 18.196 13.4956 18.8241 12.7471 18.8241H7.38948C6.64257 18.8241 6.17633 18.196 6.35081 17.4262L8.84647 6.40082C9.02096 5.62831 9.76943 5.00073 10.5183 5.00073Z" fill="#E21836"/>
<path d="M15.4303 5H21.5921C22.3399 5 22.0027 5.62758 21.8268 6.40009L19.3326 17.4255C19.1576 18.1953 19.2121 18.8234 18.4628 18.8234H12.301C11.5516 18.8234 11.0878 18.1953 11.2639 17.4255L13.758 6.40009C13.9351 5.62758 14.682 5 15.4303 5Z" fill="#00447C"/>
<path d="M21.3478 5H26.706C27.455 5 27.9202 5.62758 27.7443 6.40009L25.25 17.4255C25.074 18.1953 24.3246 18.8234 23.5757 18.8234H18.22C17.4706 18.8234 17.0058 18.1953 17.1813 17.4255L19.676 6.40009C19.8504 5.62758 20.5984 5 21.3478 5Z" fill="#007B84"/>
<path d="M11.9173 8.53338C11.3663 8.53916 11.2036 8.53338 11.1516 8.52075C11.1316 8.61849 10.7598 10.3841 10.7588 10.3856C10.6787 10.7428 10.6205 10.9974 10.4226 11.1619C10.3103 11.2575 10.1792 11.3036 10.0271 11.3036C9.78279 11.3036 9.64043 11.1787 9.61653 10.9418L9.61196 10.8604C9.61196 10.8604 9.6864 10.382 9.6864 10.3793C9.6864 10.3793 10.0766 8.77027 10.1465 8.55758C10.1502 8.54548 10.1512 8.53916 10.1521 8.53338C9.39255 8.54024 9.2579 8.53338 9.24863 8.52075C9.24353 8.53809 9.22473 8.63785 9.22473 8.63785L8.82626 10.4513L8.79204 10.6051L8.72583 11.1082C8.72583 11.2575 8.7543 11.3793 8.81098 11.4822C8.99252 11.8088 9.51035 11.8577 9.80329 11.8577C10.1807 11.8577 10.5348 11.7752 10.7741 11.6245C11.1894 11.3719 11.298 10.977 11.3949 10.6261L11.4399 10.4461C11.4399 10.4461 11.8418 8.77498 11.9102 8.55758C11.9128 8.54548 11.9138 8.53916 11.9173 8.53338ZM13.2851 9.88149C13.1882 9.88149 13.0111 9.90569 12.852 9.98595C12.7943 10.0165 12.7397 10.0517 12.6821 10.0868L12.7341 9.89359L12.7056 9.86106C12.3683 9.93137 12.2928 9.94078 11.9812 9.98595L11.955 10.0038C11.9189 10.3127 11.8867 10.5448 11.7526 11.1518C11.7015 11.3756 11.6485 11.6014 11.5954 11.8246L11.6097 11.853C11.9291 11.8356 12.026 11.8356 12.3035 11.8403L12.3259 11.8152C12.3612 11.6292 12.3658 11.5857 12.4439 11.2091C12.4806 11.0306 12.5571 10.6383 12.5949 10.4986C12.6642 10.4655 12.7326 10.433 12.7979 10.433C12.9535 10.433 12.9346 10.5727 12.9285 10.6283C12.9219 10.7218 12.8652 11.0269 12.8071 11.289L12.7683 11.4581C12.7413 11.583 12.7116 11.7044 12.6846 11.8282L12.6963 11.853C13.0111 11.8356 13.1071 11.8356 13.3759 11.8403L13.4075 11.8152C13.456 11.5248 13.4703 11.4471 13.5565 11.0243L13.5998 10.83C13.6841 10.4498 13.7264 10.257 13.6627 10.1C13.5953 9.92398 13.4336 9.88149 13.2851 9.88149ZM14.813 10.2796C14.6457 10.3126 14.539 10.3347 14.433 10.3489C14.3278 10.3663 14.2253 10.382 14.0636 10.4051L14.0508 10.4171L14.0391 10.4266C14.0222 10.5506 14.0105 10.6578 13.9881 10.7837C13.9692 10.914 13.9401 11.062 13.8927 11.2747C13.856 11.4375 13.837 11.4943 13.8161 11.5515C13.7958 11.6088 13.7733 11.6645 13.732 11.8246L13.7417 11.8394L13.7498 11.8529C13.9009 11.8456 13.9998 11.8403 14.1014 11.8394C14.2028 11.8356 14.308 11.8394 14.4707 11.8403L14.4849 11.8283L14.5002 11.8152C14.5237 11.6708 14.5273 11.6319 14.5416 11.5615C14.5559 11.4859 14.5804 11.3813 14.6406 11.1019C14.6691 10.9707 14.7008 10.8399 14.7303 10.706C14.761 10.5726 14.7932 10.4413 14.8237 10.3101L14.8192 10.2942L14.813 10.2796ZM14.8166 9.74284C14.6646 9.65048 14.3977 9.67979 14.2182 9.80737C14.0391 9.93241 14.0187 10.1099 14.1702 10.2034C14.3196 10.2932 14.5875 10.2665 14.7655 10.1378C14.9442 10.0101 14.9665 9.83426 14.8166 9.74284ZM15.7359 11.8819C16.0435 11.8819 16.3588 11.7946 16.5961 11.5357C16.7787 11.3257 16.8624 11.0133 16.8914 10.8846C16.9858 10.4581 16.9123 10.259 16.8199 10.1378C16.6797 9.95291 16.4318 9.89362 16.1746 9.89362C16.02 9.89362 15.6517 9.90935 15.364 10.1824C15.1574 10.3794 15.0619 10.6466 15.0043 10.9029C14.9462 11.164 14.8793 11.634 15.2992 11.8089C15.4288 11.8662 15.6155 11.8819 15.7359 11.8819ZM15.7119 10.9224C15.7828 10.5994 15.8666 10.3284 16.0802 10.3284C16.2476 10.3284 16.2598 10.5301 16.1853 10.8541C16.172 10.926 16.1109 11.1934 16.0282 11.3073C15.9705 11.3913 15.9022 11.4423 15.8267 11.4423C15.8043 11.4423 15.6706 11.4423 15.6686 11.238C15.6675 11.1372 15.6875 11.0342 15.7119 10.9224ZM17.6602 11.8404L17.6843 11.8152C17.7183 11.6293 17.724 11.5856 17.7995 11.2092C17.8372 11.0306 17.9153 10.6383 17.952 10.4986C18.0215 10.4654 18.0887 10.4329 18.1561 10.4329C18.3106 10.4329 18.2918 10.5726 18.2857 10.6282C18.2801 10.7218 18.2234 11.0268 18.1642 11.2889L18.1275 11.458C18.0994 11.583 18.0689 11.7043 18.0418 11.8283L18.0536 11.853C18.3694 11.8357 18.4617 11.8357 18.7321 11.8404L18.7647 11.8152C18.8121 11.5247 18.8249 11.447 18.9137 11.0243L18.9561 10.8299C19.0407 10.4497 19.0835 10.257 19.0208 10.1C18.9515 9.92402 18.7888 9.88153 18.6424 9.88153C18.5453 9.88153 18.3673 9.9056 18.2091 9.98599C18.1526 10.0165 18.0959 10.0516 18.0403 10.0868L18.0887 9.89363L18.0627 9.86096C17.7255 9.93141 17.6485 9.94082 17.3373 9.98599L17.3134 10.0039C17.2756 10.3127 17.2449 10.5447 17.1108 11.1519C17.0597 11.3756 17.0067 11.6015 16.9537 11.8246L16.9679 11.853C17.2878 11.8357 17.3832 11.8357 17.6602 11.8404ZM19.9804 11.8529C20.0003 11.7532 20.1182 11.1619 20.1193 11.1619C20.1193 11.1619 20.2197 10.7281 20.2258 10.7123C20.2258 10.7123 20.2574 10.6671 20.289 10.6493H20.3355C20.7742 10.6493 21.2696 10.6493 21.6579 10.3552C21.9221 10.1536 22.1027 9.85579 22.1833 9.49387C22.2042 9.40514 22.2196 9.2996 22.2196 9.19406C22.2196 9.05545 22.1926 8.91832 22.1145 8.81117C21.9165 8.52602 21.5222 8.52077 21.067 8.51862C21.0656 8.51862 20.8427 8.52077 20.8427 8.52077C20.26 8.52817 20.0264 8.52602 19.9304 8.51392C19.9223 8.55761 19.907 8.63532 19.907 8.63532C19.907 8.63532 19.6983 9.631 19.6983 9.63261C19.6983 9.63261 19.1989 11.7495 19.1754 11.8493C19.6841 11.843 19.8927 11.843 19.9804 11.8529ZM20.3671 10.0842C20.3671 10.0842 20.589 9.09054 20.588 9.0943L20.5952 9.04335L20.5983 9.0045L20.687 9.01391C20.687 9.01391 21.1446 9.05437 21.1553 9.05545C21.3359 9.12738 21.4104 9.31277 21.3584 9.55477C21.311 9.77593 21.1716 9.96186 20.9926 10.0517C20.8451 10.1278 20.6645 10.1341 20.4784 10.1341H20.358L20.3671 10.0842ZM21.7487 10.9408C21.6901 11.1981 21.6227 11.6681 22.0405 11.8356C22.1737 11.894 22.293 11.9113 22.4144 11.905C22.5425 11.8979 22.6612 11.8317 22.7712 11.7365C22.7612 11.7757 22.7513 11.8148 22.7414 11.854L22.7603 11.8792C23.0608 11.8661 23.1541 11.8661 23.4797 11.8687L23.5092 11.8456C23.5567 11.5579 23.6015 11.2785 23.7251 10.7281C23.7853 10.4644 23.8454 10.2034 23.9071 9.9408L23.8975 9.91189C23.5613 9.97602 23.4715 9.98973 23.1481 10.0369L23.1235 10.0575C23.1203 10.0842 23.1169 10.1099 23.1137 10.1356C23.0635 10.052 22.9906 9.98059 22.8781 9.93609C22.7343 9.87788 22.3966 9.9529 22.1063 10.225C21.9023 10.4193 21.8043 10.6855 21.7487 10.9408ZM22.4547 10.9565C22.5267 10.6394 22.6094 10.371 22.8235 10.371C22.959 10.371 23.0303 10.4997 23.0158 10.7191C23.0043 10.7738 22.9919 10.8315 22.9771 10.8967C22.9557 10.9909 22.9325 11.0844 22.9099 11.1779C22.8869 11.2419 22.8601 11.3023 22.8307 11.3425C22.7756 11.4229 22.6445 11.4728 22.569 11.4728C22.5476 11.4728 22.4154 11.4728 22.4108 11.2722C22.4098 11.1723 22.4298 11.0694 22.4547 10.9565ZM26.1417 9.90932L26.1157 9.8788C25.783 9.94818 25.7228 9.9592 25.4172 10.0017L25.3948 10.0248C25.3937 10.0286 25.3928 10.0344 25.3912 10.0396L25.3902 10.0344C25.1627 10.5747 25.1693 10.4581 24.9841 10.8835C24.9831 10.8641 24.9831 10.852 24.9821 10.8315L24.9357 9.90932L24.9066 9.8788C24.5581 9.94818 24.5499 9.9592 24.2281 10.0017L24.203 10.0248C24.1995 10.0358 24.1995 10.0479 24.1974 10.0611L24.1995 10.0658C24.2397 10.2774 24.2301 10.2302 24.2704 10.5642C24.2892 10.7281 24.3143 10.8929 24.3331 11.0548C24.3648 11.3257 24.3826 11.459 24.4214 11.8725C24.2041 12.2416 24.1526 12.3813 23.9434 12.7053L23.9448 12.7086L23.7975 12.9484C23.7807 12.9737 23.7654 12.991 23.744 12.9984C23.7204 13.0104 23.6899 13.0125 23.6474 13.0125H23.5658L23.4445 13.428L23.8607 13.4353C24.1051 13.4343 24.2587 13.3166 24.3413 13.1585L24.6031 12.6969H24.5989L24.6264 12.6643C24.8025 12.2742 26.1417 9.90932 26.1417 9.90932ZM21.7487 15.3653H21.5721L22.2256 13.1402H22.4424L22.5113 12.911L22.5179 13.1659C22.5098 13.3234 22.6302 13.4631 22.9466 13.44H23.3124L23.4383 13.0115H23.3006C23.2215 13.0115 23.1848 12.9909 23.1893 12.9469L23.1827 12.6875H22.5053V12.6889C22.2862 12.6936 21.6322 12.7105 21.4998 12.7468C21.3395 12.7893 21.1706 12.9143 21.1706 12.9143L21.237 12.6848H20.6033L20.4713 13.1402L19.809 15.3994H19.6805L19.5544 15.8247H20.8166L20.7743 15.9666H21.3962L21.4375 15.8247H21.6119L21.7487 15.3653ZM21.2308 13.5923C21.1294 13.6212 20.9405 13.7089 20.9405 13.7089L21.1085 13.1402H21.6119L21.4905 13.5545C21.4905 13.5545 21.3349 13.5639 21.2308 13.5923ZM21.2405 14.4047C21.2405 14.4047 21.0824 14.4252 20.9783 14.4494C20.8757 14.4814 20.6835 14.5822 20.6835 14.5822L20.8569 13.9904H21.363L21.2405 14.4047ZM20.9584 15.3706H20.4534L20.5998 14.8711H21.1032L20.9584 15.3706ZM22.1746 13.9904H22.9026L22.798 14.3391H22.0604L21.9496 14.7204H22.5951L22.1063 15.4288C22.0721 15.4808 22.0414 15.4992 22.0073 15.5139C21.9731 15.5318 21.9282 15.5528 21.8762 15.5528H21.6972L21.5741 15.9703H22.0425C22.2859 15.9703 22.4297 15.8563 22.5359 15.7067L22.871 15.2345L22.943 15.7139C22.9583 15.8038 23.0209 15.8563 23.0634 15.8768C23.1103 15.901 23.1587 15.9425 23.2272 15.9487C23.3006 15.9519 23.3536 15.9545 23.3889 15.9545H23.619L23.7571 15.4871H23.6664C23.6143 15.4871 23.5245 15.4781 23.5093 15.4613C23.494 15.4409 23.494 15.4094 23.4858 15.3616L23.4128 14.8811H23.1138L23.2449 14.7204H23.9811L24.0944 14.3391H23.4128L23.5189 13.9904H24.1984L24.3245 13.5603H22.2986L22.1746 13.9904ZM16.0262 15.4677L16.1961 14.8858H16.8944L17.022 14.4531H16.323L16.4297 14.0949H17.1128L17.2393 13.6758H15.5303L15.4063 14.0949H15.7946L15.691 14.4531H15.3017L15.1727 14.8932H15.5608L15.3344 15.663C15.3038 15.7649 15.3487 15.8038 15.3772 15.8511C15.4063 15.8972 15.4359 15.9278 15.5022 15.9451C15.5706 15.9608 15.6175 15.9702 15.6813 15.9702H16.4685L16.6088 15.4908L16.2598 15.5402C16.1924 15.5402 16.0058 15.5318 16.0262 15.4677ZM16.1063 12.6822L15.9293 13.0115C15.8914 13.0834 15.8573 13.128 15.8267 13.1486C15.7996 13.1659 15.7461 13.1732 15.6685 13.1732H15.5762L15.4527 13.5944H15.7594C15.9068 13.5944 16.0201 13.5387 16.0741 13.5109C16.1323 13.4789 16.1475 13.4972 16.1925 13.4526L16.296 13.3602H17.2536L17.3807 12.9216H16.6797L16.8021 12.6822H16.1063ZM17.52 15.4761C17.5036 15.4519 17.5154 15.4093 17.5403 15.3206L17.8021 14.4288H18.7331C18.8688 14.4268 18.9668 14.4252 19.0305 14.4205C19.0989 14.4131 19.1734 14.388 19.2545 14.3428C19.3382 14.2955 19.381 14.2456 19.4172 14.1883C19.4576 14.1312 19.5223 14.0062 19.578 13.8134L19.907 12.6848L18.9408 12.6906C18.9408 12.6906 18.6433 12.7358 18.5123 12.7857C18.3801 12.8413 18.1912 12.9968 18.1912 12.9968L18.2785 12.6874H17.6816L16.846 15.5401C16.8164 15.6509 16.7966 15.7313 16.792 15.7796C16.7904 15.8316 16.8557 15.8831 16.898 15.922C16.948 15.9608 17.022 15.9545 17.0929 15.9608C17.1675 15.9666 17.2735 15.9702 17.4199 15.9702H17.8786L18.0194 15.4809L17.6088 15.5208C17.5649 15.5208 17.5331 15.4966 17.52 15.4761ZM17.9709 13.8265H18.9489L18.8867 14.0271C18.8779 14.0318 18.857 14.0172 18.7575 14.0293H17.9107L17.9709 13.8265ZM18.1668 13.1538H19.153L19.0821 13.3954C19.0821 13.3954 18.6173 13.3907 18.5428 13.4048C18.2153 13.4631 18.0239 13.6433 18.0239 13.6433L18.1668 13.1538ZM18.9086 14.6988C18.9005 14.7288 18.8877 14.7471 18.8698 14.7608C18.8499 14.774 18.8178 14.7787 18.7699 14.7787H18.6305L18.6388 14.5344H18.0592L18.0356 15.7287C18.0347 15.8148 18.0428 15.8647 18.1041 15.9047C18.1653 15.9545 18.3541 15.9609 18.6081 15.9609H18.9713L19.1024 15.5138L18.7862 15.5317L18.6811 15.538C18.6667 15.5317 18.653 15.5259 18.6377 15.5102C18.6244 15.4966 18.6019 15.505 18.6056 15.4188L18.6081 15.1127L18.9397 15.0985C19.1187 15.0985 19.1953 15.0386 19.2606 14.9814C19.3229 14.9267 19.3432 14.8638 19.3667 14.7787L19.4224 14.5077H18.9667L18.9086 14.6988Z" fill="#FEFEFE"/>
</svg>
